<svg width="365" height="403" viewBox="0 0 365 403" fill="none" xmlns="http://www.w3.org/2000/svg">
<path d="M73.263 0.00438192L77.343 0.016383C91.459 0.066383 105.571 0.335381 119.683 0.644381L126.148 0.783381C133.734 0.943381 141.32 1.10771 148.906 1.27638C155.871 1.42971 162.836 1.57738 169.8 1.71938C175.88 1.84471 181.959 1.97471 188.038 2.10938C191.625 2.18938 195.213 2.26538 198.8 2.33738C247.225 3.31038 247.225 3.31038 269 7.35438L272.628 8.00938C294.826 12.1844 315.973 19.1854 334 33.1044L336.035 34.6204C353.407 48.3904 360.29 68.9304 363 90.1044C364.017 99.2784 364.242 108.442 364.25 117.667L364.252 119.794C364.202 153.144 354.29 178.749 330.442 202.67C323.87 208.918 316.902 213.689 309 218.104L306.176 219.721C281.578 232.964 246.766 239.938 219 239.104C220.092 235.827 220.8 235.181 223.375 233.042C226.707 230.224 229.931 227.326 233.125 224.354C237.86 220.026 242.797 216.064 247.871 212.144C252.297 208.707 256.466 205.061 260.594 201.268C263.947 198.253 267.455 195.446 270.961 192.612C274.471 189.716 277.891 186.728 281.312 183.729C286.764 178.959 292.345 174.421 298.075 169.992C302.433 166.603 306.535 163 310.598 159.26C313.039 157.069 315.558 155.023 318.125 152.979C328.363 144.641 338.244 135.809 346.438 125.417L347.814 123.672C349.958 120.842 351.279 118.562 352 115.104L349.168 117.237C341.582 122.945 333.963 128.609 326.312 134.229C318.795 139.748 311.357 145.374 304 151.104L300.55 153.776C293.603 159.185 286.783 164.754 280.094 170.479C277.204 172.943 274.264 175.341 271.313 177.729C266.915 181.306 262.707 185.047 258.52 188.866C255.968 191.132 253.348 193.279 250.688 195.416C245.873 199.308 241.349 203.436 236.834 207.664C233.523 210.752 230.096 213.713 226.562 216.541C222.187 220.051 218.08 223.762 214 227.604C209.084 232.227 203.983 236.65 198.71 240.862C195.71 243.343 192.849 245.952 190 248.604C185.47 252.814 180.797 256.78 175.98 260.659C172.427 263.574 168.963 266.582 165.5 269.604C160.307 274.139 155.033 278.58 149.68 282.924C146.748 285.318 143.834 287.732 140.937 290.167C136.439 293.928 131.877 297.612 127.254 301.217C122.215 305.435 118.971 309.475 116.187 315.417L115.162 317.527C114.101 319.716 113.047 321.909 112 324.104C97.976 353.348 76.784 381.246 45.407 393.082C30.921 398.153 15.459 402.28 0 402.104C2.886 390.187 6.113 378.388 9.5 366.604L10.273 363.904C15.273 346.45 20.45 329.051 25.699 311.67L26.364 309.47C27.212 306.67 28.074 303.88 29 301.104C32.421 299.964 32.736 300.149 35.816 301.624L38.106 302.708L40.563 303.917C41.403 304.322 42.242 304.728 43.107 305.147C53.875 310.417 64.389 316.199 74.563 322.541C81.876 326.955 89.381 329.463 98 328.104C101.106 326.764 103.449 325.206 105 322.104L102.313 322.354C77.863 322.158 47.757 298.842 31.432 282.61C13.912 264.176 3.38699 240.624 3.64999 215.147C4.18699 197.122 9.51499 172.514 22.773 159.342C24.438 157.917 24.438 157.917 27 156.104C28.375 160.524 27.257 164.116 26.125 168.479C21.319 187.572 19.908 207.944 29.938 225.542C38.303 238.412 50.32 246.047 65 250.104C85.04 254.112 102.238 245.74 118.888 235.409C140.865 221.827 163.353 209.087 185.914 196.506C190.856 193.745 195.788 190.964 200.708 188.163C210.415 182.658 220.185 177.263 230.015 171.981C236.927 168.244 243.797 164.431 250.625 160.541C261.679 154.263 272.813 148.144 284 142.104L287.222 140.362C298.062 134.507 308.905 128.664 319.879 123.061L321.851 122.051C324.973 120.455 328.099 118.865 331.233 117.291C341.2 112.209 351.238 106.32 359 98.1044V96.1044L355.992 97.6444C319.084 116.404 319.084 116.404 303.188 116.167L300.793 116.139L299 116.104L299.621 114.487C302.986 105.182 304.27 97.2994 300 88.1044C293.09 75.5184 277.832 69.3564 264.785 64.9094C254.082 61.8164 243.267 59.9834 232.129 59.9154L229.878 59.8894C228.276 59.8721 226.674 59.8571 225.072 59.8444C222.511 59.8217 219.95 59.796 217.388 59.7674C211.925 59.7091 206.463 59.6548 201 59.6044C91.915 58.5644 91.915 58.5644 61.844 28.9834C55.499 22.1384 49.41 13.8434 46 5.10438C46.438 2.94438 46.438 2.94438 47 1.10438C55.774 0.21438 64.448 -0.0376181 73.263 0.00438192Z" fill="white"/>
<path d="M165 55.1044C164.377 61.5349 162.832 67.3565 161.066 73.5053C158.246 83.5868 155.664 93.7203 153.232 103.924L152.722 106.068C151.675 110.471 150.632 114.875 149.592 119.28C148.68 123.131 147.766 126.98 146.849 130.829C143.812 143.567 140.809 156.315 137.839 169.073L136.118 176.445C135.633 178.532 135.158 180.623 134.683 182.713C127.07 215.37 127.07 215.37 117.959 222.804C102.022 232.559 77.2905 234.323 59.8421 229.577C57.8655 228.563 55.9055 227.498 54 226.326C55.4966 218.252 57.515 210.428 59.6629 202.539L60.771 198.443C61.7434 194.847 62.718 191.251 63.695 187.657C64.8446 183.418 65.9925 179.179 67.1389 174.939C68.0905 171.417 69.0454 167.896 70.0035 164.375C71.7778 157.872 73.5246 151.36 75.2438 144.839C76.0163 141.901 76.7917 138.964 77.57 136.028C78.1042 133.995 78.6342 131.959 79.16 129.923C85.4344 106.258 96.5393 85.6523 116.499 73.5302C126.407 67.817 136.975 64.1976 147.587 60.4697C151.365 59.0826 155.074 57.5112 158.782 55.9095C161.105 55.1044 161.105 55.1044 165 55.1044Z" fill="white"/>
</svg>
