<svg xmlns="http://www.w3.org/2000/svg" width="721" height="574"><path d="M0 0h721v574H0z" id="svg-layer-0" style="pointer-events: all; fill: none;" fill="none"/><path fill="#E0E0E1" d="m244.263 84.9 4.08.012c14.116.05 28.228.319 42.34.628l6.465.139q11.379.24 22.758.493 10.448.23 20.894.443 9.12.188 18.238.39 5.381.12 10.762.228c48.425.973 48.425.973 70.2 5.017l3.628.655C465.826 97.08 486.973 104.081 505 118l2.035 1.516C524.407 133.286 531.29 153.826 534 175c1.017 9.174 1.242 18.338 1.25 27.563l.002 2.127c-.05 33.35-9.962 58.955-33.81 82.876C494.87 293.814 487.902 298.585 480 303l-2.824 1.617C452.578 317.86 417.766 324.834 390 324c1.092-3.277 1.8-3.923 4.375-6.062 3.332-2.818 6.556-5.716 9.75-8.688 4.735-4.328 9.672-8.29 14.746-12.21 4.426-3.437 8.595-7.083 12.723-10.876 3.353-3.015 6.861-5.822 10.367-8.656 3.51-2.896 6.93-5.884 10.351-8.883 5.452-4.77 11.033-9.308 16.763-13.737 4.358-3.389 8.46-6.992 12.523-10.732 2.441-2.191 4.96-4.237 7.527-6.281 10.238-8.338 20.119-17.17 28.313-27.562l1.376-1.745c2.144-2.83 3.465-5.11 4.186-8.568l-2.832 2.133a2479 2479 0 0 1-22.856 16.992A983 983 0 0 0 475 236l-3.45 2.672a570 570 0 0 0-20.456 16.703c-2.89 2.464-5.83 4.862-8.781 7.25-4.398 3.577-8.606 7.318-12.793 11.137-2.552 2.266-5.172 4.413-7.832 6.55-4.815 3.892-9.339 8.02-13.854 12.248a180 180 0 0 1-10.272 8.877c-4.375 3.51-8.482 7.221-12.562 11.063a251 251 0 0 1-15.29 13.258c-3 2.481-5.861 5.09-8.71 7.742-4.53 4.21-9.203 8.176-14.02 12.055-3.553 2.915-7.017 5.923-10.48 8.945a573 573 0 0 1-15.82 13.32 790 790 0 0 0-8.743 7.243 516 516 0 0 1-13.683 11.05c-5.039 4.218-8.283 8.258-11.067 14.2l-1.025 2.11A1095 1095 0 0 0 283 409c-14.024 29.244-35.216 57.142-66.593 68.978-14.486 5.071-29.948 9.198-45.407 9.022 2.886-11.917 6.113-23.716 9.5-35.5l.773-2.7c5-17.454 10.177-34.853 15.426-52.234l.665-2.2c.848-2.8 1.71-5.59 2.636-8.366 3.421-1.14 3.736-.955 6.816.52l2.29 1.084 2.457 1.209c.84.405 1.679.811 2.544 1.23 10.768 5.27 21.282 11.052 31.456 17.394 7.313 4.414 14.818 6.922 23.437 5.563 3.106-1.34 5.449-2.898 7-6l-2.687.25c-24.45-.196-54.556-23.512-70.881-39.744-17.52-18.434-28.045-41.986-27.782-67.463.537-18.025 5.865-42.633 19.123-55.805 1.665-1.425 1.665-1.425 4.227-3.238 1.375 4.42.257 8.012-.875 12.375-4.806 19.093-6.217 39.465 3.813 57.063C209.303 323.308 221.32 330.943 236 335c20.04 4.008 37.238-4.364 53.888-14.695 21.977-13.582 44.465-26.322 67.026-38.903a2161 2161 0 0 0 14.794-8.343 1463 1463 0 0 1 29.307-16.182 1066 1066 0 0 0 20.61-11.44C432.679 239.159 443.813 233.04 455 227l3.222-1.742c10.84-5.855 21.683-11.698 32.657-17.301l1.972-1.01c3.122-1.596 6.248-3.186 9.382-4.76C512.2 197.105 522.238 191.216 530 183v-2l-3.008 1.54c-36.908 18.76-36.908 18.76-52.804 18.523l-2.395-.028L470 201l.621-1.617c3.365-9.305 4.649-17.188.379-26.383-6.91-12.586-22.168-18.748-35.215-23.195-10.703-3.093-21.518-4.926-32.656-4.994l-2.251-.026q-2.403-.026-4.806-.045-3.841-.034-7.684-.077A11328 11328 0 0 0 372 144.5c-109.085-1.04-109.085-1.04-139.156-30.621C226.499 107.034 220.41 98.739 217 90c.438-2.16.438-2.16 1-4 8.774-.89 17.448-1.142 26.263-1.1" id="svg-layer-1" style="pointer-events: all;"/><path fill="#E0E0E1" d="M335 157c-.64 5.934-2.227 11.306-4.04 16.98-2.897 9.303-5.548 18.654-8.046 28.07l-.524 1.978a6614 6614 0 0 0-3.214 12.192q-1.405 5.33-2.818 10.657a6236 6236 0 0 0-9.253 35.291l-1.768 6.803c-.498 1.926-.986 3.855-1.473 5.784-7.819 30.135-7.819 30.135-17.176 36.995C270.32 320.752 244.92 322.379 227 318c-2.03-.936-4.043-1.919-6-3 1.537-7.451 3.61-14.67 5.816-21.95l1.138-3.78q1.498-4.978 3.003-9.953 1.771-5.867 3.537-11.736 1.466-4.875 2.942-9.748a1998 1998 0 0 0 5.382-18.028q1.19-4.066 2.389-8.13.823-2.815 1.633-5.634c6.444-21.837 17.849-40.852 38.348-52.038 10.176-5.272 21.03-8.612 31.928-12.052 3.88-1.28 7.69-2.73 11.498-4.208C331 157 331 157 335 157" id="svg-layer-2" style="pointer-events: all;"/></svg>